<?xml version="1.0" standalone="no"?>
<!DOCTYPE svg PUBLIC "-//W3C//DTD SVG 20010904//EN"
 "http://www.w3.org/TR/2001/REC-SVG-20010904/DTD/svg10.dtd">
<svg version="1.0" xmlns="http://www.w3.org/2000/svg"
 width="600.000000pt" height="150.000000pt" viewBox="0 210 600 150"
 preserveAspectRatio="xMidYMid meet">
<g transform="translate(0.000000,600.000000) scale(0.100000,-0.100000)"
fill="#000000" stroke="none">
<path d="M3015 3627 c-36 -9 -110 -47 -92 -47 7 0 -26 -40 -69 -84 -31 -32
-79 -109 -76 -123 2 -7 -2 -13 -7 -13 -10 0 -27 -39 -23 -52 1 -5 -2 -8 -8 -8
-5 0 -10 -5 -10 -10 0 -21 -56 -71 -104 -93 -54 -25 -116 -28 -141 -7 -20 17
-38 77 -31 105 9 35 51 52 108 45 29 -3 44 -2 41 4 -4 5 1 7 11 3 22 -9 63 28
71 64 5 20 0 39 -14 62 -30 48 -102 113 -136 123 -37 10 -225 13 -225 3 0 -4
-10 -9 -23 -13 -13 -3 -36 -17 -53 -31 -16 -14 -33 -25 -38 -25 -13 0 -75 -69
-143 -158 -32 -43 -61 -79 -66 -80 -4 -2 -5 -8 -2 -12 3 -5 -4 -14 -15 -20
-11 -6 -20 -18 -20 -26 0 -8 -4 -13 -9 -10 -5 4 -11 3 -13 -1 -7 -17 -69 -53
-80 -47 -7 4 -8 3 -4 -4 4 -7 2 -12 -3 -12 -14 0 -13 0 -63 -15 -44 -13 -67
-9 -135 21 -17 8 -39 14 -48 14 -21 0 -49 -27 -50 -51 -1 -11 1 -17 4 -14 3 3
12 -9 21 -27 24 -51 71 -70 155 -63 39 4 93 14 120 23 47 15 211 111 191 112
-6 0 -3 6 6 13 17 13 69 74 103 121 11 16 26 34 33 42 7 8 11 14 8 14 -7 0 20
34 48 61 11 11 16 19 11 19 -12 0 60 47 81 53 38 11 150 16 184 9 36 -8 44
-26 13 -29 -33 -3 -61 -11 -83 -25 -41 -23 -75 -60 -72 -75 2 -8 -1 -12 -6 -9
-11 6 -22 -39 -22 -88 0 -17 14 -61 32 -98 29 -62 37 -71 86 -95 123 -60 287
1 360 134 12 22 22 48 22 57 0 11 5 15 13 10 6 -4 9 -4 5 0 -9 11 51 123 83
155 14 14 39 33 55 41 16 8 31 18 34 22 11 14 97 31 116 23 18 -8 18 -9 -3
-12 -57 -10 -122 -156 -110 -247 16 -111 104 -184 229 -187 29 -1 67 5 83 12
17 7 35 13 40 13 6 1 16 9 23 19 7 9 20 17 29 17 9 0 14 3 10 6 -3 4 -1 12 6
19 18 18 48 60 112 155 58 85 106 140 125 140 5 0 14 9 20 20 6 11 14 19 18
18 4 -1 25 6 47 16 22 10 56 17 75 16 19 0 43 -1 53 -1 27 0 20 -6 -20 -20
-47 -15 -110 -73 -129 -118 -44 -105 31 -279 139 -325 64 -26 114 -30 144 -9
31 21 106 56 112 53 2 -1 8 5 13 14 5 9 15 16 22 16 8 0 17 7 20 16 4 9 9 14
12 11 3 -3 17 6 29 19 20 21 22 30 14 54 -14 40 -39 42 -93 9 -25 -16 -50 -29
-55 -29 -5 0 -14 -7 -21 -15 -7 -9 -15 -13 -18 -11 -2 3 -14 0 -25 -5 -11 -6
-45 -12 -76 -14 l-56 -3 -32 51 c-38 58 -40 77 -16 115 36 56 57 66 147 67 68
0 89 4 105 19 26 24 27 50 1 91 -41 67 -133 112 -261 127 -94 11 -96 11 -155
-16 -32 -15 -70 -37 -83 -49 -29 -27 -141 -174 -141 -186 0 -4 -9 -16 -20 -26
-11 -10 -18 -20 -15 -23 4 -4 -27 -48 -53 -75 -24 -25 -59 -48 -81 -53 -14 -3
-39 -10 -54 -15 -20 -6 -40 -4 -67 7 -35 14 -40 20 -46 59 -7 52 1 92 25 124
19 24 15 24 143 19 43 -2 90 26 94 57 4 27 -44 88 -96 124 -82 56 -196 75
-295 48z m216 -37 c50 -14 115 -63 135 -102 15 -30 15 -32 -2 -46 -14 -10 -36
-12 -83 -8 -104 9 -155 -27 -168 -119 -9 -69 18 -129 66 -148 31 -13 46 -13
97 -3 97 21 116 36 213 183 86 130 155 210 204 235 119 62 379 -7 415 -111 9
-26 8 -30 -16 -40 -15 -8 -45 -10 -77 -6 -70 9 -113 -11 -164 -75 -23 -28 -41
-56 -41 -61 0 -14 28 -68 63 -118 l29 -43 62 4 c60 4 138 34 228 90 20 13 40
20 43 16 19 -19 -15 -53 -115 -113 l-110 -66 -56 10 c-76 14 -119 49 -155 125
-49 103 -38 180 35 243 49 44 97 58 151 44 24 -6 52 -11 61 -11 32 0 -14 38
-75 61 -73 27 -167 24 -231 -10 -81 -42 -128 -90 -217 -222 -96 -145 -127
-174 -204 -194 -130 -35 -258 53 -259 176 0 57 29 140 61 172 30 29 31 30 115
24 46 -2 84 -2 84 2 0 4 -10 17 -22 29 -52 47 -195 54 -276 13 -91 -46 -149
-117 -203 -246 -39 -92 -80 -138 -156 -172 -45 -21 -66 -24 -119 -21 -79 5
-109 25 -146 98 -70 137 -2 250 152 250 71 0 75 9 25 56 -44 41 -86 50 -181
36 -107 -15 -139 -35 -212 -133 -119 -159 -154 -198 -213 -243 -75 -57 -148
-84 -246 -92 -71 -6 -81 -4 -106 16 -34 27 -52 69 -38 83 7 7 26 2 60 -16 62
-34 125 -35 202 -4 82 34 133 80 211 190 85 118 166 199 232 232 42 21 64 25
138 25 106 0 129 -10 192 -82 47 -54 54 -75 35 -109 -9 -18 -17 -19 -68 -13
-47 5 -65 2 -99 -15 -52 -26 -65 -51 -57 -102 16 -96 79 -134 177 -105 80 23
127 69 187 184 62 119 158 236 204 251 71 22 163 23 238 1z"/>
<path d="M2127 3399 c-15 -23 -27 -45 -25 -51 3 -9 68 73 68 86 0 16 -18 1
-43 -35z"/>
<path d="M2410 3197 c0 -16 29 -57 40 -57 5 0 0 16 -11 35 -22 37 -29 43 -29
22z"/>
<path d="M4230 2997 c-14 -7 -39 -22 -55 -33 -17 -12 -54 -27 -82 -35 -29 -7
-53 -17 -53 -21 0 -5 -4 -7 -9 -4 -5 3 -30 2 -55 -3 -46 -8 -114 2 -181 29
-16 6 -32 11 -35 12 -3 0 -10 4 -16 8 -20 18 -121 38 -164 33 -62 -6 -105 -21
-162 -54 -26 -16 -48 -26 -48 -23 0 4 -7 1 -15 -6 -11 -9 -19 -10 -26 -3 -6 6
-29 7 -57 3 -28 -5 -49 -4 -53 2 -3 5 -10 9 -15 9 -5 0 -16 1 -24 3 -76 20
-108 31 -105 36 3 4 -21 13 -53 19 -31 7 -67 17 -79 22 -14 5 -25 4 -29 -2 -4
-8 -9 -7 -15 2 -6 11 -11 11 -20 2 -6 -6 -18 -9 -25 -6 -8 3 -20 1 -27 -5 -6
-5 -25 -12 -42 -16 -16 -4 -32 -11 -35 -15 -6 -10 -100 -54 -120 -56 -8 -1
-35 -5 -60 -9 -37 -6 -123 1 -200 17 -16 4 -54 18 -111 43 -25 11 -56 15 -95
12 -62 -5 -181 -34 -200 -49 -6 -5 -14 -6 -17 -2 -4 3 -7 2 -7 -4 0 -24 -207
-51 -243 -32 -12 6 -34 23 -50 37 -23 22 -31 24 -54 16 -14 -5 -27 -16 -29
-24 -2 -8 -5 -25 -8 -37 -5 -21 27 -62 70 -91 77 -50 213 -51 319 -2 56 26
128 42 200 46 70 4 91 0 175 -28 85 -29 106 -32 203 -31 61 1 113 6 121 12 7
6 16 8 20 4 4 -4 11 -2 15 5 4 7 18 14 30 17 13 2 29 9 35 15 7 5 16 7 19 3 4
-3 7 -1 7 5 0 7 3 11 8 10 4 0 16 2 27 7 11 4 35 14 54 21 56 23 114 18 173
-16 101 -58 138 -71 212 -72 39 0 78 2 86 4 8 3 29 9 45 13 17 5 65 26 107 48
l78 40 62 -19 c35 -10 69 -18 76 -16 6 2 12 -1 12 -5 0 -5 8 -9 18 -10 32 -4
57 -9 77 -19 11 -5 74 -9 140 -9 116 1 149 4 170 16 6 4 18 5 28 4 9 -2 14 1
11 7 -3 5 0 8 7 7 32 -5 129 61 129 87 0 9 4 12 10 9 18 -11 5 38 -16 62 -12
12 -23 23 -25 22 -2 0 -15 -6 -29 -12z m47 -33 c17 -46 -64 -101 -191 -129
-109 -24 -228 -16 -371 25 -60 18 -126 32 -146 32 -23 -1 -69 -17 -119 -42
-150 -75 -247 -75 -376 2 -50 29 -84 42 -122 46 -56 5 -76 -1 -241 -70 -88
-37 -101 -40 -195 -41 -89 0 -112 3 -196 33 -127 44 -202 40 -377 -19 -171
-58 -239 -55 -328 16 -37 30 -45 62 -20 83 13 11 21 7 49 -26 l34 -39 100 2
c90 2 108 6 180 38 147 64 220 68 364 16 156 -57 265 -52 414 19 133 63 184
64 339 9 149 -52 179 -59 215 -49 21 6 30 4 34 -5 4 -11 30 -2 106 37 132 66
180 68 320 13 56 -22 120 -39 156 -42 85 -8 193 18 279 67 80 45 83 46 92 24z"/>
<path d="M2798 2710 c-15 -4 -46 -17 -70 -28 -24 -11 -72 -28 -108 -37 -36
-10 -74 -21 -85 -25 -21 -9 -43 -11 -85 -9 -14 0 -37 1 -52 2 -16 0 -28 4 -28
9 0 4 -3 7 -7 6 -5 -1 -22 5 -39 15 -17 9 -34 14 -37 11 -3 -3 -12 -2 -19 2
-7 5 -22 10 -33 13 -49 10 -186 1 -178 -11 2 -5 -4 -8 -14 -9 -36 -1 -68 -10
-89 -24 -21 -13 -59 -23 -119 -30 -38 -4 -107 9 -163 29 -37 14 -47 14 -76 2
-23 -10 -35 -22 -38 -41 -8 -38 21 -60 95 -74 34 -7 84 -19 110 -28 30 -9 64
-13 90 -9 23 3 49 6 57 7 8 1 17 5 20 9 9 12 127 40 194 47 50 4 73 2 100 -11
20 -9 59 -20 87 -23 35 -4 46 -9 37 -15 -9 -7 -6 -7 7 -2 11 5 49 9 85 11 36
2 74 3 85 4 37 1 137 20 163 30 15 6 28 10 30 10 1 -1 15 5 31 13 15 8 51 18
80 22 45 6 59 3 114 -24 109 -54 115 -56 246 -66 45 -4 122 14 180 43 19 9 39
16 45 17 6 0 18 4 26 7 44 18 210 7 210 -14 0 -5 7 -6 15 -3 8 4 15 1 15 -7 0
-7 3 -10 6 -6 3 3 24 -1 46 -9 22 -8 56 -14 75 -14 19 0 32 -4 29 -8 -3 -4 9
-7 27 -6 17 1 72 -2 122 -7 85 -9 213 -4 201 9 -3 3 11 13 32 22 51 23 112 78
128 115 10 24 10 34 -2 57 -8 16 -19 28 -25 28 -14 0 -69 -32 -69 -40 0 -4 -6
-7 -12 -7 -7 -1 -37 -10 -67 -22 -30 -11 -58 -18 -62 -15 -5 3 -15 2 -21 -2
-16 -10 -190 -13 -203 -4 -5 4 -27 11 -49 14 -21 4 -46 11 -55 16 -36 21 -156
50 -203 50 -59 0 -138 -19 -156 -37 -7 -7 -25 -16 -40 -20 -15 -3 -37 -13 -49
-20 -12 -8 -27 -12 -33 -8 -5 3 -10 3 -10 -2 0 -4 -23 -9 -50 -10 -51 -3 -238
51 -287 83 -13 8 -34 15 -48 16 -14 1 -25 5 -25 8 0 8 -53 8 -82 0z m208 -76
c200 -78 250 -79 407 -7 124 56 179 56 337 2 113 -38 134 -42 225 -43 124 0
228 24 296 70 27 18 51 29 54 24 21 -34 -51 -115 -134 -153 -38 -18 -62 -21
-136 -20 -151 4 -270 22 -373 55 -129 42 -186 41 -314 -5 -53 -20 -116 -38
-140 -42 -58 -9 -173 16 -261 57 -95 44 -153 44 -262 1 -93 -36 -246 -59 -336
-49 -33 3 -92 15 -131 27 -86 26 -158 22 -268 -16 -94 -33 -163 -33 -290 -2
-102 26 -124 46 -76 68 21 10 35 8 83 -12 85 -35 160 -31 298 16 145 50 214
52 333 6 103 -38 163 -40 269 -6 43 14 90 25 106 25 15 0 27 4 27 8 0 8 47 32
90 46 27 8 83 -6 196 -50z"/>
<path d="M2840 2632 c0 -4 20 -9 45 -10 25 -1 45 3 45 8 0 6 -20 10 -45 10
-25 0 -45 -4 -45 -8z"/>
<path d="M3492 2628 c-24 -5 -41 -12 -39 -15 9 -8 107 8 107 18 0 11 -10 10
-68 -3z"/>
<path d="M2940 2612 c0 -9 72 -43 78 -37 5 4 -59 45 -70 45 -5 0 -8 -4 -8 -8z"/>
<path d="M4118 2576 c-25 -6 -50 -15 -55 -20 -5 -5 2 -6 17 -3 14 4 37 7 51 7
14 0 34 7 45 15 23 17 10 18 -58 1z"/>
</g>
</svg>
